<svg xmlns="http://www.w3.org/2000/svg" viewBox="0 0 676.72 213.55"><defs><style>.cls-1{fill:#006d2c;}.cls-1,.cls-3{fill-rule:evenodd;}.cls-2,.cls-3{fill:#fff;}.cls-4{fill:none;stroke:#000;stroke-miterlimit:3.86;stroke-width:0;}.cls-5{fill:#595959;}</style></defs><title>Logo CEPAC - verde</title><g id="Layer_2" data-name="Layer 2"><g id="Primer_plano" data-name="Primer plano"><path class="cls-1" d="M464.65,97.55a31.17,31.17,0,0,0,17.16-5.3,32.26,32.26,0,0,0,9.63-10l45.44,127.5H491.77l-5.23-18.08L464,113.15l-22.55,78.51-5.14,18.08H392L437.46,82.22a31.47,31.47,0,0,0,27,15.33Z"/><path class="cls-1" d="M487.49,71.13l1.43,4a26.09,26.09,0,0,1-48.94,0l1.44-4Z"/><path class="cls-2" d="M491.44,82.25a31.44,31.44,0,0,1-54,0L440,75.16a26.09,26.09,0,0,0,48.94,0Z"/><path class="cls-1" d="M277,209.34V71.13h56.44q19.71,0,29.79,1.81A59.83,59.83,0,0,1,379.75,78a42.94,42.94,0,0,1,20,22.93A49.59,49.59,0,0,1,402.55,118a52.42,52.42,0,0,1-3.38,19.27,43.76,43.76,0,0,1-8,13.7,40.12,40.12,0,0,1-9.71,7.95,48.76,48.76,0,0,1-10.66,4.19,81.9,81.9,0,0,1-23.32,3.23H321.64v43Z"/><path class="cls-3" d="M298.48,78.56a68.7,68.7,0,0,0,9.75,8.31c8.82,6,18.12,9.59,25,18.52a34.39,34.39,0,0,1,4.86,8.89,49.46,49.46,0,0,1,2,10.94c3.44-6.5,10.27-9.3,15.75-10.36a16.7,16.7,0,0,1,.88,6.85c0,7.44-2.18,12.93-11.15,17.49-2,1-4.46,1.74-6.85,2.75-.21-.19-.4-.08-.4-.5a12.61,12.61,0,0,1,.71-2.12c.77-2.22,2-4.48,2.91-6.86a35.48,35.48,0,0,1,4.46-8,35,35,0,0,1,3.5-3.72v-.18c-6.21,4.26-11.34,12.46-13.85,19.24-.41-1.74-.77-3.44-1-5.09-1.92-11.62-7.45-22.52-19.37-31.78-1.09-.86-2.22-1.78-3.2-2.6a.55.55,0,0,0-.39.09C322.38,110.69,333,125.88,333,139c0,6.48-3,12.76-11.14,18,0,0-.23,0-.23-.41s.4-.87.44-1.19c.42-2.32.73-6.84.73-7.26a43,43,0,0,0-1.23-8.92c-3.09-10.24-13.47-19.46-20-28.8a35.15,35.15,0,0,1-4.69-8.72,29.45,29.45,0,0,1-1.34-5c-.23-1.48-.38-4.28-.38-4.7a47.78,47.78,0,0,1,.88-6.87,21.18,21.18,0,0,1,1.74-5A8,8,0,0,1,298.48,78.56Z"/><path class="cls-3" d="M380.27,134.58a.71.71,0,0,1,.42.24c-6.91,10.69-18.39,20.22-29,21.2-.69.06-1.5.29-2.34.46l-23.16-.21a1.42,1.42,0,0,1,.74-.74c4-2.17,9.12-6.89,12.36-9.86a19.15,19.15,0,0,1,7.19-3.87,43.47,43.47,0,0,1,6.06-.88h11a8.25,8.25,0,0,0,1.18-.29,33.85,33.85,0,0,0,10.84-2.94,26.21,26.21,0,0,0,3-1.67C379.07,135.68,379.56,134.92,380.27,134.58Z"/><path class="cls-1" d="M675.77,124.48H632.94q-1.14-10.37-7.38-16.13t-15.85-5.76a24,24,0,0,0-19.56,9.33q-7.57,9.33-7.57,30.26,0,14.37,3.24,21.89a24,24,0,0,0,9,11.18q5.76,3.66,14.33,3.66,10.47,0,16.66-5.76t7.33-17.08h43.59a77.74,77.74,0,0,1-5.14,21.6q-3.71,8.76-12.42,17.51a60.54,60.54,0,0,1-20.75,13.56q-12,4.8-27.84,4.81a87.22,87.22,0,0,1-29.17-4.71,62.55,62.55,0,0,1-22.46-13.28,63.33,63.33,0,0,1-14.23-19.7,80.52,80.52,0,0,1-7.23-34.45,84.32,84.32,0,0,1,5.24-30,66.85,66.85,0,0,1,14.37-23.31,62.25,62.25,0,0,1,20.27-14.18,79.88,79.88,0,0,1,31.41-6,86.53,86.53,0,0,1,28.08,4.47,54.24,54.24,0,0,1,21.61,13.08,59.36,59.36,0,0,1,12.94,19.84A70.23,70.23,0,0,1,675.77,124.48Z"/><polygon class="cls-1" points="150.13 209.35 150.13 71.13 262.44 71.13 262.44 103.81 193.91 103.81 193.91 123.22 252.06 123.22 252.06 154.53 193.91 154.53 193.91 176.23 265.2 176.23 265.2 209.35 150.13 209.35"/><path class="cls-1" d="M138.3,124.48H95.47q-1.14-10.37-7.38-16.13t-15.85-5.76a24,24,0,0,0-19.56,9.33q-7.57,9.33-7.57,30.26,0,14.37,3.24,21.89a24,24,0,0,0,9,11.18q5.76,3.66,14.33,3.66,10.47,0,16.66-5.76t7.33-17.08h43.59a77.77,77.77,0,0,1-5.14,21.6q-3.71,8.76-12.42,17.51a60.55,60.55,0,0,1-20.75,13.56q-12,4.8-27.84,4.81a87.24,87.24,0,0,1-29.17-4.71,62.55,62.55,0,0,1-22.46-13.28,63.35,63.35,0,0,1-14.23-19.7A80.52,80.52,0,0,1,0,141.42a84.32,84.32,0,0,1,5.24-30A66.82,66.82,0,0,1,19.61,88.13,62.27,62.27,0,0,1,39.88,73.95a79.88,79.88,0,0,1,31.41-6,86.53,86.53,0,0,1,28.08,4.47A54.25,54.25,0,0,1,121,85.51a59.34,59.34,0,0,1,12.94,19.84A70.23,70.23,0,0,1,138.3,124.48Z"/><path class="cls-4" d="M440,75.06"/><path class="cls-5" d="M402.87,61.57a61.58,61.58,0,1,1,107.26,41.3,59.12,59.12,0,1,0-91.34,0A61.34,61.34,0,0,1,402.87,61.57Z"/><path class="cls-5" d="M415.82,63.26a48.63,48.63,0,1,1,84.7,32.62,46.69,46.69,0,1,0-72.13,0A48.44,48.44,0,0,1,415.82,63.26Z"/><path class="cls-5" d="M426,64.07a38.41,38.41,0,1,1,66.89,25.76,36.87,36.87,0,1,0-57,0A38.26,38.26,0,0,1,426,64.07Z"/><path class="cls-5" d="M434.12,64.71a30.33,30.33,0,1,1,52.82,20.34,29.12,29.12,0,1,0-45,0A30.21,30.21,0,0,1,434.12,64.71Z"/></g></g></svg>